<?xml version="1.0" encoding="utf-8"?>
<svg viewBox="0 0 59.132 71.566" xmlns="http://www.w3.org/2000/svg">
  <path d="M 53.464 31.567 L 52.777 30.235 C 52.606 29.901 52.313 29.646 51.959 29.52 L 50.592 29.033 C 51.228 28.24 51.633 27.269 51.729 26.198 L 54.317 27.456 C 54.637 27.611 54.897 27.868 55.055 28.187 L 56.269 30.613 L 53.464 31.567 Z M 43.601 25.727 C 43.601 24.147 44.881 22.866 46.461 22.866 C 48.042 22.866 49.322 24.147 49.322 25.727 C 49.322 27.307 48.042 28.588 46.461 28.588 C 44.881 28.588 43.601 27.307 43.601 25.727 M 31.732 32.45 C 31.732 30.452 33.352 28.832 35.35 28.832 C 37.349 28.832 38.969 30.452 38.969 32.45 C 38.969 34.449 37.349 36.069 35.35 36.069 C 33.352 36.069 31.732 34.449 31.732 32.45 M 6.018 39.267 C 6.018 37.858 7.16 36.715 8.569 36.715 C 9.979 36.715 11.12 37.858 11.12 39.267 C 11.12 40.675 9.979 41.818 8.569 41.818 C 7.16 41.818 6.018 40.675 6.018 39.267 M 6.837 4.82 C 7.398 4.82 7.852 5.274 7.852 5.834 C 7.852 6.395 7.398 6.849 6.837 6.849 C 6.277 6.849 5.822 6.395 5.822 5.834 C 5.822 5.274 6.277 4.82 6.837 4.82 M 17.721 2.408 C 18.281 2.408 18.735 2.862 18.735 3.422 C 18.735 3.982 18.281 4.436 17.721 4.436 C 17.16 4.436 16.706 3.982 16.706 3.422 C 16.706 2.862 17.16 2.408 17.721 2.408 M 30.014 6.727 C 30.573 6.727 31.028 7.181 31.028 7.742 C 31.028 8.302 30.573 8.756 30.014 8.756 C 29.453 8.756 28.999 8.302 28.999 7.742 C 28.999 7.181 29.453 6.727 30.014 6.727 M 49.642 10.206 C 50.202 10.206 50.656 10.66 50.656 11.22 C 50.656 11.78 50.202 12.234 49.642 12.234 C 49.081 12.234 48.627 11.78 48.627 11.22 C 48.627 10.66 49.081 10.206 49.642 10.206 M 58.961 30.316 L 57.388 27.14 C 57.024 26.404 56.452 25.791 55.745 25.376 L 50.474 22.277 C 49.499 21.145 48.072 20.413 46.461 20.413 C 46.367 20.413 46.279 20.436 46.187 20.441 L 44.586 19.112 L 50.813 17.093 L 50.813 14.423 C 52.123 13.943 53.064 12.696 53.064 11.22 C 53.064 9.33 51.531 7.798 49.642 7.798 C 47.752 7.798 46.22 9.33 46.22 11.22 C 46.22 12.594 47.035 13.772 48.204 14.316 L 48.204 15.284 L 42.019 17.219 L 35.455 17.009 L 31.29 12.717 L 31.326 10.901 C 32.565 10.386 33.436 9.166 33.436 7.742 C 33.436 5.852 31.903 4.319 30.014 4.319 C 28.123 4.319 26.592 5.852 26.592 7.742 C 26.592 9.172 27.471 10.395 28.717 10.906 L 28.681 13.559 L 31.795 16.924 L 25.862 16.798 L 19.13 10.613 L 19.13 6.533 C 20.315 5.995 21.143 4.808 21.143 3.422 C 21.143 1.532 19.61 0 17.721 0 C 15.83 0 14.299 1.532 14.299 3.422 C 14.299 4.904 15.246 6.153 16.564 6.63 L 16.564 11.497 L 22.201 16.588 L 16.522 16.294 L 8.527 12.38 L 8.366 8.88 C 9.485 8.317 10.259 7.171 10.259 5.834 C 10.259 3.944 8.728 2.412 6.837 2.412 C 4.947 2.412 3.415 3.944 3.415 5.834 C 3.415 7.328 4.377 8.584 5.711 9.051 L 5.834 13.937 L 16.059 18.902 L 41.851 19.87 L 43.446 21.357 C 42.059 22.316 41.148 23.913 41.148 25.727 C 41.148 26.229 41.239 26.706 41.369 27.166 L 39.828 28.629 C 38.748 27.364 37.145 26.56 35.35 26.56 C 32.31 26.56 29.808 28.864 29.494 31.822 L 12.151 36.106 C 11.273 35.11 10.002 34.47 8.569 34.47 C 5.92 34.47 3.773 36.617 3.773 39.267 C 3.773 40.599 4.318 41.803 5.194 42.672 L 4.376 44.975 L 0 49.463 L 0.168 71.51 L 2.749 71.51 L 2.749 50.304 L 6.62 46.658 L 7.701 43.976 C 7.984 44.027 8.272 44.063 8.569 44.063 C 8.697 44.063 8.818 44.035 8.943 44.025 L 7.125 51.146 L 10.435 59.785 L 10.49 71.566 L 12.903 71.566 L 12.959 58.943 L 9.65 50.921 L 11.699 42.874 C 12.712 41.995 13.366 40.713 13.366 39.267 C 13.366 39.031 13.329 38.805 13.297 38.579 L 29.815 34.449 C 30.139 35.346 30.673 36.14 31.36 36.774 L 31.248 71.51 L 33.828 71.51 L 33.828 38.135 C 34.315 38.265 34.823 38.341 35.35 38.341 C 35.911 38.341 36.451 38.257 36.965 38.111 L 36.858 71.51 L 39.439 71.51 L 39.439 36.686 C 40.548 35.614 41.24 34.114 41.24 32.45 C 41.24 31.892 41.158 31.355 41.013 30.843 L 42.668 29.442 C 43.633 30.427 44.974 31.042 46.461 31.042 C 47.095 31.042 47.693 30.912 48.256 30.709 L 50.268 31.366 C 50.661 31.494 50.987 31.775 51.172 32.146 L 51.916 33.633 C 52.251 34.304 53.045 34.605 53.74 34.324 L 58.104 32.566 C 58.99 32.208 59.385 31.172 58.961 30.316" style="fill-opacity: 1; fill: rgba(197, 19, 41, 0.88);"></path>
</svg>