<?xml version="1.0" encoding="utf-8"?>
<svg viewBox="0 0 224.924 71.566" xmlns="http://www.w3.org/2000/svg">
  <path d="M 53.464 31.567 L 52.777 30.235 C 52.606 29.901 52.313 29.646 51.959 29.52 L 50.592 29.033 C 51.228 28.24 51.633 27.269 51.729 26.198 L 54.317 27.456 C 54.637 27.611 54.897 27.868 55.055 28.187 L 56.269 30.613 L 53.464 31.567 Z M 43.601 25.727 C 43.601 24.147 44.881 22.866 46.461 22.866 C 48.042 22.866 49.322 24.147 49.322 25.727 C 49.322 27.307 48.042 28.588 46.461 28.588 C 44.881 28.588 43.601 27.307 43.601 25.727 M 31.732 32.45 C 31.732 30.452 33.352 28.832 35.35 28.832 C 37.349 28.832 38.969 30.452 38.969 32.45 C 38.969 34.449 37.349 36.069 35.35 36.069 C 33.352 36.069 31.732 34.449 31.732 32.45 M 6.018 39.267 C 6.018 37.858 7.16 36.715 8.569 36.715 C 9.979 36.715 11.12 37.858 11.12 39.267 C 11.12 40.675 9.979 41.818 8.569 41.818 C 7.16 41.818 6.018 40.675 6.018 39.267 M 6.837 4.82 C 7.398 4.82 7.852 5.274 7.852 5.834 C 7.852 6.395 7.398 6.849 6.837 6.849 C 6.277 6.849 5.822 6.395 5.822 5.834 C 5.822 5.274 6.277 4.82 6.837 4.82 M 17.721 2.408 C 18.281 2.408 18.735 2.862 18.735 3.422 C 18.735 3.982 18.281 4.436 17.721 4.436 C 17.16 4.436 16.706 3.982 16.706 3.422 C 16.706 2.862 17.16 2.408 17.721 2.408 M 30.014 6.727 C 30.573 6.727 31.028 7.181 31.028 7.742 C 31.028 8.302 30.573 8.756 30.014 8.756 C 29.453 8.756 28.999 8.302 28.999 7.742 C 28.999 7.181 29.453 6.727 30.014 6.727 M 49.642 10.206 C 50.202 10.206 50.656 10.66 50.656 11.22 C 50.656 11.78 50.202 12.234 49.642 12.234 C 49.081 12.234 48.627 11.78 48.627 11.22 C 48.627 10.66 49.081 10.206 49.642 10.206 M 58.961 30.316 L 57.388 27.14 C 57.024 26.404 56.452 25.791 55.745 25.376 L 50.474 22.277 C 49.499 21.145 48.072 20.413 46.461 20.413 C 46.367 20.413 46.279 20.436 46.187 20.441 L 44.586 19.112 L 50.813 17.093 L 50.813 14.423 C 52.123 13.943 53.064 12.696 53.064 11.22 C 53.064 9.33 51.531 7.798 49.642 7.798 C 47.752 7.798 46.22 9.33 46.22 11.22 C 46.22 12.594 47.035 13.772 48.204 14.316 L 48.204 15.284 L 42.019 17.219 L 35.455 17.009 L 31.29 12.717 L 31.326 10.901 C 32.565 10.386 33.436 9.166 33.436 7.742 C 33.436 5.852 31.903 4.319 30.014 4.319 C 28.123 4.319 26.592 5.852 26.592 7.742 C 26.592 9.172 27.471 10.395 28.717 10.906 L 28.681 13.559 L 31.795 16.924 L 25.862 16.798 L 19.13 10.613 L 19.13 6.533 C 20.315 5.995 21.143 4.808 21.143 3.422 C 21.143 1.532 19.61 0 17.721 0 C 15.83 0 14.299 1.532 14.299 3.422 C 14.299 4.904 15.246 6.153 16.564 6.63 L 16.564 11.497 L 22.201 16.588 L 16.522 16.294 L 8.527 12.38 L 8.366 8.88 C 9.485 8.317 10.259 7.171 10.259 5.834 C 10.259 3.944 8.728 2.412 6.837 2.412 C 4.947 2.412 3.415 3.944 3.415 5.834 C 3.415 7.328 4.377 8.584 5.711 9.051 L 5.834 13.937 L 16.059 18.902 L 41.851 19.87 L 43.446 21.357 C 42.059 22.316 41.148 23.913 41.148 25.727 C 41.148 26.229 41.239 26.706 41.369 27.166 L 39.828 28.629 C 38.748 27.364 37.145 26.56 35.35 26.56 C 32.31 26.56 29.808 28.864 29.494 31.822 L 12.151 36.106 C 11.273 35.11 10.002 34.47 8.569 34.47 C 5.92 34.47 3.773 36.617 3.773 39.267 C 3.773 40.599 4.318 41.803 5.194 42.672 L 4.376 44.975 L 0 49.463 L 0.168 71.51 L 2.749 71.51 L 2.749 50.304 L 6.62 46.658 L 7.701 43.976 C 7.984 44.027 8.272 44.063 8.569 44.063 C 8.697 44.063 8.818 44.035 8.943 44.025 L 7.125 51.146 L 10.435 59.785 L 10.49 71.566 L 12.903 71.566 L 12.959 58.943 L 9.65 50.921 L 11.699 42.874 C 12.712 41.995 13.366 40.713 13.366 39.267 C 13.366 39.031 13.329 38.805 13.297 38.579 L 29.815 34.449 C 30.139 35.346 30.673 36.14 31.36 36.774 L 31.248 71.51 L 33.828 71.51 L 33.828 38.135 C 34.315 38.265 34.823 38.341 35.35 38.341 C 35.911 38.341 36.451 38.257 36.965 38.111 L 36.858 71.51 L 39.439 71.51 L 39.439 36.686 C 40.548 35.614 41.24 34.114 41.24 32.45 C 41.24 31.892 41.158 31.355 41.013 30.843 L 42.668 29.442 C 43.633 30.427 44.974 31.042 46.461 31.042 C 47.095 31.042 47.693 30.912 48.256 30.709 L 50.268 31.366 C 50.661 31.494 50.987 31.775 51.172 32.146 L 51.916 33.633 C 52.251 34.304 53.045 34.605 53.74 34.324 L 58.104 32.566 C 58.99 32.208 59.385 31.172 58.961 30.316" style="fill-opacity: 1; fill: rgba(197, 19, 41, 0.88);"></path>
  <path d="M 59.746 39.489 C 60.291 40.487 60.92 41.719 61.633 43.185 C 62.345 44.653 63.088 46.24 63.861 47.947 C 64.634 49.656 65.399 51.403 66.158 53.186 C 66.915 54.97 67.628 56.649 68.295 58.22 C 68.962 56.649 69.674 54.97 70.433 53.186 C 71.189 51.403 71.955 49.656 72.728 47.947 C 73.502 46.24 74.244 44.653 74.957 43.185 C 75.669 41.719 76.299 40.487 76.845 39.489 L 83.284 39.489 C 83.587 41.575 83.866 43.911 84.124 46.496 C 84.38 49.082 84.607 51.773 84.804 54.57 C 85 57.366 85.182 60.171 85.349 62.983 C 85.514 65.795 85.658 68.441 85.779 70.92 L 78.886 70.92 C 78.795 67.866 78.674 64.54 78.522 60.942 C 78.371 57.344 78.143 53.716 77.842 50.057 C 77.296 51.326 76.689 52.733 76.022 54.275 C 75.354 55.817 74.695 57.359 74.043 58.901 C 73.391 60.443 72.762 61.917 72.155 63.323 C 71.549 64.729 71.032 65.931 70.608 66.928 L 65.664 66.928 C 65.239 65.931 64.724 64.729 64.117 63.323 C 63.511 61.917 62.881 60.443 62.228 58.901 C 61.577 57.359 60.917 55.817 60.25 54.275 C 59.583 52.733 58.976 51.326 58.431 50.057 C 58.128 53.716 57.901 57.344 57.75 60.942 C 57.599 64.54 57.478 67.866 57.388 70.92 L 50.493 70.92 C 50.614 68.441 50.758 65.795 50.925 62.983 C 51.09 60.171 51.271 57.366 51.469 54.57 C 51.665 51.773 51.892 49.082 52.148 46.496 C 52.405 43.911 52.685 41.575 52.988 39.489 L 59.746 39.489 Z" style="fill-opacity: 1; fill: rgba(197, 19, 41, 0.88);"></path>
  <path d="M 104.102 58.946 C 104.102 56.86 103.686 55.22 102.855 54.025 C 102.023 52.831 100.836 52.234 99.294 52.234 C 97.752 52.234 96.558 52.831 95.711 54.025 C 94.865 55.22 94.442 56.86 94.442 58.946 C 94.442 61.032 94.865 62.688 95.711 63.912 C 96.558 65.137 97.752 65.749 99.294 65.749 C 100.836 65.749 102.023 65.137 102.855 63.912 C 103.686 62.688 104.102 61.032 104.102 58.946 M 110.997 58.946 C 110.997 60.821 110.724 62.537 110.18 64.094 C 109.635 65.652 108.849 66.982 107.822 68.085 C 106.793 69.189 105.561 70.043 104.125 70.648 C 102.689 71.252 101.079 71.554 99.294 71.554 C 97.54 71.554 95.946 71.252 94.51 70.648 C 93.074 70.043 91.841 69.189 90.814 68.085 C 89.786 66.982 88.984 65.652 88.41 64.094 C 87.835 62.537 87.548 60.821 87.548 58.946 C 87.548 57.071 87.843 55.363 88.432 53.821 C 89.022 52.279 89.838 50.964 90.881 49.875 C 91.924 48.787 93.164 47.941 94.601 47.335 C 96.037 46.731 97.601 46.428 99.294 46.428 C 101.018 46.428 102.598 46.731 104.035 47.335 C 105.47 47.941 106.703 48.787 107.731 49.875 C 108.758 50.964 109.56 52.279 110.134 53.821 C 110.708 55.363 110.997 57.071 110.997 58.946" style="fill-opacity: 1; fill: rgba(197, 19, 41, 0.88);"></path>
  <path d="M 128.684 58.946 C 128.684 56.86 128.268 55.22 127.437 54.025 C 126.605 52.831 125.418 52.234 123.876 52.234 C 122.334 52.234 121.139 52.831 120.293 54.025 C 119.447 55.22 119.023 56.86 119.023 58.946 C 119.023 61.032 119.447 62.688 120.293 63.912 C 121.139 65.137 122.334 65.749 123.876 65.749 C 125.418 65.749 126.605 65.137 127.437 63.912 C 128.268 62.688 128.684 61.032 128.684 58.946 M 135.578 58.946 C 135.578 60.821 135.305 62.537 134.761 64.094 C 134.217 65.652 133.43 66.982 132.403 68.085 C 131.374 69.189 130.142 70.043 128.706 70.648 C 127.27 71.252 125.66 71.554 123.876 71.554 C 122.122 71.554 120.527 71.252 119.091 70.648 C 117.655 70.043 116.422 69.189 115.395 68.085 C 114.367 66.982 113.565 65.652 112.992 64.094 C 112.416 62.537 112.129 60.821 112.129 58.946 C 112.129 57.071 112.424 55.363 113.014 53.821 C 113.604 52.279 114.42 50.964 115.463 49.875 C 116.506 48.787 117.746 47.941 119.182 47.335 C 120.618 46.731 122.183 46.428 123.876 46.428 C 125.6 46.428 127.179 46.731 128.616 47.335 C 130.051 47.941 131.284 48.787 132.312 49.875 C 133.339 50.964 134.141 52.279 134.716 53.821 C 135.29 55.363 135.578 57.071 135.578 58.946" style="fill-opacity: 1; fill: rgba(197, 19, 41, 0.88);"></path>
  <path d="M 144.693 66.067 C 145.932 66.067 146.809 65.947 147.324 65.704 C 147.838 65.463 148.094 64.994 148.094 64.298 C 148.094 63.754 147.761 63.278 147.097 62.87 C 146.431 62.462 145.419 62.001 144.058 61.486 C 143 61.094 142.04 60.686 141.178 60.262 C 140.316 59.838 139.583 59.332 138.978 58.742 C 138.374 58.153 137.905 57.45 137.573 56.633 C 137.24 55.817 137.074 54.835 137.074 53.685 C 137.074 51.448 137.905 49.679 139.568 48.379 C 141.23 47.079 143.514 46.429 146.417 46.429 C 147.868 46.429 149.258 46.558 150.589 46.814 C 151.92 47.071 152.977 47.351 153.764 47.653 L 152.585 52.914 C 151.798 52.642 150.944 52.4 150.022 52.189 C 149.099 51.978 148.064 51.871 146.916 51.871 C 144.798 51.871 143.741 52.461 143.741 53.64 C 143.741 53.912 143.786 54.154 143.877 54.366 C 143.967 54.578 144.149 54.782 144.421 54.978 C 144.693 55.175 145.063 55.388 145.532 55.616 C 146.001 55.845 146.598 56.096 147.324 56.37 C 148.804 56.919 150.029 57.461 150.998 57.993 C 151.964 58.527 152.728 59.103 153.288 59.721 C 153.847 60.34 154.24 61.026 154.467 61.78 C 154.694 62.534 154.807 63.41 154.807 64.404 C 154.807 66.758 153.922 68.538 152.154 69.745 C 150.385 70.951 147.882 71.555 144.648 71.555 C 142.531 71.555 140.77 71.374 139.364 71.011 C 137.958 70.648 136.983 70.346 136.439 70.104 L 137.573 64.616 C 138.721 65.069 139.9 65.425 141.11 65.682 C 142.319 65.939 143.514 66.067 144.693 66.067" style="fill-opacity: 1; fill: rgba(197, 19, 41, 0.88);"></path>
  <path d="M 171.633 56.588 C 171.603 56.014 171.504 55.454 171.338 54.91 C 171.172 54.366 170.914 53.882 170.568 53.459 C 170.219 53.036 169.78 52.688 169.252 52.416 C 168.723 52.143 168.065 52.007 167.279 52.007 C 166.523 52.007 165.873 52.136 165.329 52.393 C 164.784 52.65 164.331 52.99 163.968 53.413 C 163.606 53.837 163.325 54.328 163.129 54.887 C 162.932 55.447 162.789 56.014 162.698 56.588 L 171.633 56.588 Z M 155.759 59.173 C 155.759 57.057 156.084 55.205 156.735 53.617 C 157.384 52.03 158.238 50.708 159.297 49.649 C 160.355 48.591 161.571 47.789 162.947 47.245 C 164.323 46.701 165.737 46.429 167.189 46.429 C 170.574 46.429 173.25 47.465 175.216 49.535 C 177.181 51.607 178.164 54.653 178.164 58.674 C 178.164 59.067 178.149 59.499 178.118 59.967 C 178.088 60.436 178.058 60.851 178.029 61.214 L 162.698 61.214 C 162.849 62.605 163.499 63.709 164.649 64.525 C 165.797 65.341 167.339 65.75 169.275 65.75 C 170.514 65.75 171.731 65.636 172.926 65.409 C 174.12 65.183 175.095 64.903 175.851 64.57 L 176.758 70.058 C 176.396 70.24 175.911 70.421 175.307 70.603 C 174.701 70.784 174.029 70.942 173.288 71.079 C 172.547 71.215 171.754 71.328 170.907 71.419 C 170.061 71.51 169.214 71.555 168.367 71.555 C 166.221 71.555 164.354 71.237 162.767 70.603 C 161.179 69.967 159.863 69.099 158.82 67.995 C 157.778 66.891 157.006 65.584 156.507 64.071 C 156.009 62.56 155.759 60.927 155.759 59.173" style="fill-opacity: 1; fill: rgba(197, 19, 41, 0.88);"></path>
  <path d="M 180.886 70.92 L 180.886 39.489 L 201.93 39.489 L 201.93 45.431 L 187.961 45.431 L 187.961 52.007 L 200.388 52.007 L 200.388 57.949 L 187.961 57.949 L 187.961 70.92 L 180.886 70.92 Z" style="fill-opacity: 1; fill: rgba(197, 19, 41, 0.88);"></path>
  <path d="M 212.542 65.523 C 213.54 65.523 214.363 65.44 215.015 65.273 C 215.664 65.107 216.186 64.881 216.579 64.593 C 216.972 64.306 217.243 63.966 217.396 63.573 C 217.546 63.18 217.622 62.741 217.622 62.257 C 217.622 61.23 217.138 60.375 216.171 59.695 C 215.203 59.015 213.54 58.282 211.182 57.495 C 210.153 57.132 209.125 56.717 208.098 56.248 C 207.069 55.779 206.147 55.19 205.331 54.479 C 204.515 53.769 203.85 52.907 203.335 51.894 C 202.821 50.881 202.564 49.649 202.564 48.197 C 202.564 46.746 202.837 45.439 203.381 44.274 C 203.925 43.111 204.696 42.12 205.694 41.304 C 206.691 40.487 207.9 39.86 209.322 39.421 C 210.743 38.983 212.346 38.764 214.13 38.764 C 216.246 38.764 218.075 38.99 219.617 39.444 C 221.16 39.898 222.43 40.397 223.428 40.941 L 221.387 46.52 C 220.509 46.066 219.534 45.666 218.461 45.317 C 217.388 44.97 216.095 44.796 214.583 44.796 C 212.89 44.796 211.673 45.03 210.933 45.499 C 210.191 45.968 209.821 46.686 209.821 47.653 C 209.821 48.228 209.957 48.712 210.229 49.105 C 210.501 49.498 210.887 49.853 211.386 50.17 C 211.885 50.488 212.459 50.775 213.109 51.032 C 213.759 51.289 214.477 51.554 215.264 51.826 C 216.896 52.431 218.317 53.028 219.527 53.617 C 220.736 54.207 221.741 54.895 222.543 55.681 C 223.344 56.467 223.941 57.39 224.335 58.447 C 224.728 59.506 224.924 60.791 224.924 62.303 C 224.924 65.236 223.896 67.511 221.84 69.128 C 219.783 70.746 216.685 71.555 212.542 71.555 C 211.151 71.555 209.896 71.471 208.778 71.306 C 207.659 71.139 206.669 70.935 205.808 70.693 C 204.945 70.452 204.204 70.194 203.585 69.922 C 202.965 69.65 202.443 69.394 202.021 69.151 L 204.016 63.527 C 204.952 64.042 206.109 64.502 207.485 64.911 C 208.861 65.319 210.547 65.523 212.542 65.523" style="fill-opacity: 1; fill: rgba(197, 19, 41, 0.88);"></path>
</svg>