<?xml version="1.0" encoding="utf-8"?>
<svg viewBox="29.561 28.544 224.924 71.566" xmlns="http://www.w3.org/2000/svg">
  <defs>
    <clipPath id="clippath0" transform="">
      <path d="M 0 154.207 L 364.629 154.207 L 364.629 0 L 0 0 Z" style="fill: none; clip-rule: nonzero;"/>
    </clipPath>
  </defs>
  <g class="page-1" transform="matrix(1, 0, 0, -1, 0, 154.20700073242188)">
    <g style="clip-path: url('#clippath0');">
      <g transform="translate(89.3072 86.1741)">
        <path d="M 0 0 C 0.545 -0.998 1.174 -2.23 1.887 -3.696 C 2.599 -5.164 3.342 -6.751 4.115 -8.458 C 4.888 -10.167 5.653 -11.914 6.412 -13.697 C 7.169 -15.481 7.882 -17.16 8.549 -18.731 C 9.216 -17.16 9.928 -15.481 10.687 -13.697 C 11.443 -11.914 12.209 -10.167 12.982 -8.458 C 13.756 -6.751 14.498 -5.164 15.211 -3.696 C 15.923 -2.23 16.553 -0.998 17.099 0 L 23.538 0 C 23.841 -2.086 24.12 -4.422 24.378 -7.007 C 24.634 -9.593 24.861 -12.284 25.058 -15.081 C 25.254 -17.877 25.436 -20.682 25.603 -23.494 C 25.768 -26.306 25.912 -28.952 26.033 -31.431 L 19.14 -31.431 C 19.049 -28.377 18.928 -25.051 18.776 -21.453 C 18.625 -17.855 18.397 -14.227 18.096 -10.568 C 17.55 -11.837 16.943 -13.244 16.276 -14.786 C 15.608 -16.328 14.949 -17.87 14.297 -19.412 C 13.645 -20.954 13.016 -22.428 12.409 -23.834 C 11.803 -25.24 11.286 -26.442 10.862 -27.439 L 5.918 -27.439 C 5.493 -26.442 4.978 -25.24 4.371 -23.834 C 3.765 -22.428 3.135 -20.954 2.482 -19.412 C 1.831 -17.87 1.171 -16.328 0.504 -14.786 C -0.163 -13.244 -0.77 -11.837 -1.315 -10.568 C -1.618 -14.227 -1.845 -17.855 -1.996 -21.453 C -2.147 -25.051 -2.268 -28.377 -2.358 -31.431 L -9.253 -31.431 C -9.132 -28.952 -8.988 -26.306 -8.821 -23.494 C -8.656 -20.682 -8.475 -17.877 -8.277 -15.081 C -8.081 -12.284 -7.854 -9.593 -7.598 -7.007 C -7.341 -4.422 -7.061 -2.086 -6.758 0 Z" style="fill-opacity: 1; fill: rgba(197, 19, 41, 0.88);"/>
      </g>
    </g>
    <g style="clip-path: url('#clippath0');">
      <g transform="translate(133.6626 66.717)">
        <path d="M 0 0 C 0 2.086 -0.416 3.726 -1.247 4.921 C -2.079 6.115 -3.266 6.712 -4.808 6.712 C -6.35 6.712 -7.544 6.115 -8.391 4.921 C -9.237 3.726 -9.66 2.086 -9.66 0 C -9.66 -2.086 -9.237 -3.742 -8.391 -4.966 C -7.544 -6.191 -6.35 -6.803 -4.808 -6.803 C -3.266 -6.803 -2.079 -6.191 -1.247 -4.966 C -0.416 -3.742 0 -2.086 0 0 M 6.895 0 C 6.895 -1.875 6.622 -3.591 6.078 -5.148 C 5.533 -6.706 4.747 -8.036 3.72 -9.139 C 2.691 -10.243 1.459 -11.097 0.023 -11.702 C -1.413 -12.306 -3.023 -12.608 -4.808 -12.608 C -6.562 -12.608 -8.156 -12.306 -9.592 -11.702 C -11.028 -11.097 -12.261 -10.243 -13.288 -9.139 C -14.316 -8.036 -15.118 -6.706 -15.692 -5.148 C -16.267 -3.591 -16.554 -1.875 -16.554 0 C -16.554 1.875 -16.259 3.583 -15.67 5.125 C -15.08 6.667 -14.264 7.982 -13.221 9.071 C -12.178 10.159 -10.938 11.005 -9.501 11.611 C -8.065 12.215 -6.501 12.518 -4.808 12.518 C -3.084 12.518 -1.504 12.215 -0.067 11.611 C 1.368 11.005 2.601 10.159 3.629 9.071 C 4.656 7.982 5.458 6.667 6.032 5.125 C 6.606 3.583 6.895 1.875 6.895 0" style="fill-opacity: 1; fill: rgba(197, 19, 41, 0.88);"/>
      </g>
    </g>
    <g style="clip-path: url('#clippath0');">
      <g transform="translate(158.2447 66.717)">
        <path d="M 0 0 C 0 2.086 -0.416 3.726 -1.247 4.921 C -2.079 6.115 -3.266 6.712 -4.808 6.712 C -6.35 6.712 -7.545 6.115 -8.391 4.921 C -9.237 3.726 -9.661 2.086 -9.661 0 C -9.661 -2.086 -9.237 -3.742 -8.391 -4.966 C -7.545 -6.191 -6.35 -6.803 -4.808 -6.803 C -3.266 -6.803 -2.079 -6.191 -1.247 -4.966 C -0.416 -3.742 0 -2.086 0 0 M 6.894 0 C 6.894 -1.875 6.621 -3.591 6.077 -5.148 C 5.533 -6.706 4.746 -8.036 3.719 -9.139 C 2.69 -10.243 1.458 -11.097 0.022 -11.702 C -1.414 -12.306 -3.024 -12.608 -4.808 -12.608 C -6.562 -12.608 -8.157 -12.306 -9.593 -11.702 C -11.029 -11.097 -12.262 -10.243 -13.289 -9.139 C -14.317 -8.036 -15.119 -6.706 -15.692 -5.148 C -16.268 -3.591 -16.555 -1.875 -16.555 0 C -16.555 1.875 -16.26 3.583 -15.67 5.125 C -15.08 6.667 -14.264 7.982 -13.221 9.071 C -12.178 10.159 -10.938 11.005 -9.502 11.611 C -8.066 12.215 -6.501 12.518 -4.808 12.518 C -3.084 12.518 -1.505 12.215 -0.068 11.611 C 1.367 11.005 2.6 10.159 3.628 9.071 C 4.655 7.982 5.457 6.667 6.032 5.125 C 6.606 3.583 6.894 1.875 6.894 0" style="fill-opacity: 1; fill: rgba(197, 19, 41, 0.88);"/>
      </g>
    </g>
    <g style="clip-path: url('#clippath0');">
      <g transform="translate(174.2544 59.5964)">
        <path d="M 0 0 C 1.239 0 2.116 0.12 2.631 0.363 C 3.145 0.604 3.401 1.073 3.401 1.769 C 3.401 2.313 3.068 2.789 2.404 3.197 C 1.738 3.605 0.726 4.066 -0.635 4.581 C -1.693 4.973 -2.653 5.381 -3.515 5.805 C -4.377 6.229 -5.11 6.735 -5.715 7.325 C -6.319 7.914 -6.788 8.617 -7.12 9.434 C -7.453 10.25 -7.619 11.232 -7.619 12.382 C -7.619 14.619 -6.788 16.388 -5.125 17.688 C -3.463 18.988 -1.179 19.638 1.724 19.638 C 3.175 19.638 4.565 19.509 5.896 19.253 C 7.227 18.996 8.284 18.716 9.071 18.414 L 7.892 13.153 C 7.105 13.425 6.251 13.667 5.329 13.878 C 4.406 14.089 3.371 14.196 2.223 14.196 C 0.105 14.196 -0.952 13.606 -0.952 12.427 C -0.952 12.155 -0.907 11.913 -0.816 11.701 C -0.726 11.489 -0.544 11.285 -0.272 11.089 C 0 10.892 0.37 10.679 0.839 10.451 C 1.308 10.222 1.905 9.971 2.631 9.697 C 4.111 9.148 5.336 8.606 6.305 8.074 C 7.271 7.54 8.035 6.964 8.595 6.346 C 9.154 5.727 9.547 5.041 9.774 4.287 C 10.001 3.533 10.114 2.657 10.114 1.663 C 10.114 -0.691 9.229 -2.471 7.461 -3.678 C 5.692 -4.884 3.189 -5.488 -0.045 -5.488 C -2.162 -5.488 -3.923 -5.307 -5.329 -4.944 C -6.735 -4.581 -7.71 -4.279 -8.254 -4.037 L -7.12 1.451 C -5.972 0.998 -4.793 0.642 -3.583 0.385 C -2.374 0.128 -1.179 0 0 0" style="fill-opacity: 1; fill: rgba(197, 19, 41, 0.88);"/>
      </g>
    </g>
    <g style="clip-path: url('#clippath0');">
      <g transform="translate(201.1939 69.0754)">
        <path d="M 0 0 C -0.03 0.574 -0.129 1.134 -0.295 1.678 C -0.461 2.222 -0.719 2.706 -1.065 3.129 C -1.414 3.552 -1.853 3.9 -2.381 4.172 C -2.91 4.445 -3.568 4.581 -4.354 4.581 C -5.11 4.581 -5.76 4.452 -6.304 4.195 C -6.849 3.938 -7.302 3.598 -7.665 3.175 C -8.027 2.751 -8.308 2.26 -8.504 1.701 C -8.701 1.141 -8.844 0.574 -8.935 0 Z M -15.874 -2.585 C -15.874 -0.469 -15.549 1.383 -14.898 2.971 C -14.249 4.558 -13.395 5.88 -12.336 6.939 C -11.278 7.997 -10.062 8.799 -8.686 9.343 C -7.31 9.887 -5.896 10.159 -4.444 10.159 C -1.059 10.159 1.617 9.123 3.583 7.053 C 5.548 4.981 6.531 1.935 6.531 -2.086 C 6.531 -2.479 6.516 -2.911 6.485 -3.379 C 6.455 -3.848 6.425 -4.263 6.396 -4.626 L -8.935 -4.626 C -8.784 -6.017 -8.134 -7.121 -6.984 -7.937 C -5.836 -8.753 -4.294 -9.162 -2.358 -9.162 C -1.119 -9.162 0.098 -9.048 1.293 -8.821 C 2.487 -8.595 3.462 -8.315 4.218 -7.982 L 5.125 -13.47 C 4.763 -13.652 4.278 -13.833 3.674 -14.015 C 3.068 -14.196 2.396 -14.354 1.655 -14.491 C 0.914 -14.627 0.121 -14.74 -0.726 -14.831 C -1.572 -14.922 -2.419 -14.967 -3.266 -14.967 C -5.412 -14.967 -7.279 -14.649 -8.866 -14.015 C -10.454 -13.379 -11.77 -12.511 -12.813 -11.407 C -13.855 -10.303 -14.627 -8.996 -15.126 -7.483 C -15.624 -5.972 -15.874 -4.339 -15.874 -2.585" style="fill-opacity: 1; fill: rgba(197, 19, 41, 0.88);"/>
      </g>
    </g>
    <g style="clip-path: url('#clippath0');">
      <g transform="translate(210.4468 54.7434)">
        <path d="M 0 0 L 0 31.431 L 21.044 31.431 L 21.044 25.489 L 7.075 25.489 L 7.075 18.913 L 19.502 18.913 L 19.502 12.971 L 7.075 12.971 L 7.075 0 Z" style="fill-opacity: 1; fill: rgba(197, 19, 41, 0.88);"/>
      </g>
    </g>
    <g style="clip-path: url('#clippath0');">
      <g transform="translate(242.1031 60.1404)">
        <path d="M 0 0 C 0.998 0 1.821 0.083 2.473 0.25 C 3.122 0.416 3.644 0.642 4.037 0.93 C 4.43 1.217 4.701 1.557 4.854 1.95 C 5.004 2.343 5.08 2.782 5.08 3.266 C 5.08 4.293 4.596 5.148 3.629 5.828 C 2.661 6.508 0.998 7.241 -1.36 8.028 C -2.389 8.391 -3.417 8.806 -4.444 9.275 C -5.473 9.744 -6.395 10.333 -7.211 11.044 C -8.027 11.754 -8.692 12.616 -9.207 13.629 C -9.721 14.642 -9.978 15.874 -9.978 17.326 C -9.978 18.777 -9.705 20.084 -9.161 21.249 C -8.617 22.412 -7.846 23.403 -6.848 24.219 C -5.851 25.036 -4.642 25.663 -3.22 26.102 C -1.799 26.54 -0.196 26.759 1.588 26.759 C 3.704 26.759 5.533 26.533 7.075 26.079 C 8.618 25.625 9.888 25.126 10.886 24.582 L 8.845 19.003 C 7.967 19.457 6.992 19.857 5.919 20.206 C 4.846 20.553 3.553 20.727 2.041 20.727 C 0.348 20.727 -0.869 20.493 -1.609 20.024 C -2.351 19.555 -2.721 18.837 -2.721 17.87 C -2.721 17.295 -2.585 16.811 -2.313 16.418 C -2.041 16.025 -1.655 15.67 -1.156 15.353 C -0.657 15.035 -0.083 14.748 0.567 14.491 C 1.217 14.234 1.935 13.969 2.722 13.697 C 4.354 13.092 5.775 12.495 6.985 11.906 C 8.194 11.316 9.199 10.628 10.001 9.842 C 10.802 9.056 11.399 8.133 11.793 7.076 C 12.186 6.017 12.382 4.732 12.382 3.22 C 12.382 0.287 11.354 -1.988 9.298 -3.605 C 7.241 -5.223 4.143 -6.032 0 -6.032 C -1.391 -6.032 -2.646 -5.948 -3.764 -5.783 C -4.883 -5.616 -5.873 -5.412 -6.734 -5.17 C -7.597 -4.929 -8.338 -4.671 -8.957 -4.399 C -9.577 -4.127 -10.099 -3.871 -10.521 -3.628 L -8.526 1.996 C -7.59 1.481 -6.433 1.021 -5.057 0.612 C -3.681 0.204 -1.995 0 0 0" style="fill-opacity: 1; fill: rgba(197, 19, 41, 0.88);"/>
      </g>
    </g>
    <g style="clip-path: url('#clippath0');">
      <g transform="translate(322.5406 75.5535)"/>
    </g>
    <g style="clip-path: url('#clippath0');"/>
    <g style="clip-path: url('#clippath0');">
      <g transform="translate(83.0249 94.0959)">
        <path d="M 0 0 L -0.687 1.332 C -0.858 1.666 -1.151 1.921 -1.505 2.047 L -2.872 2.534 C -2.236 3.327 -1.831 4.298 -1.735 5.369 L 0.853 4.111 C 1.173 3.956 1.433 3.699 1.591 3.38 L 2.805 0.954 Z M -9.863 5.84 C -9.863 7.42 -8.583 8.701 -7.003 8.701 C -5.422 8.701 -4.142 7.42 -4.142 5.84 C -4.142 4.26 -5.422 2.979 -7.003 2.979 C -8.583 2.979 -9.863 4.26 -9.863 5.84 M -21.732 -0.883 C -21.732 1.115 -20.112 2.735 -18.114 2.735 C -16.115 2.735 -14.495 1.115 -14.495 -0.883 C -14.495 -2.882 -16.115 -4.502 -18.114 -4.502 C -20.112 -4.502 -21.732 -2.882 -21.732 -0.883 M -47.446 -7.7 C -47.446 -6.291 -46.304 -5.148 -44.895 -5.148 C -43.485 -5.148 -42.344 -6.291 -42.344 -7.7 C -42.344 -9.108 -43.485 -10.251 -44.895 -10.251 C -46.304 -10.251 -47.446 -9.108 -47.446 -7.7 M -46.627 26.747 C -46.066 26.747 -45.612 26.293 -45.612 25.733 C -45.612 25.172 -46.066 24.718 -46.627 24.718 C -47.187 24.718 -47.642 25.172 -47.642 25.733 C -47.642 26.293 -47.187 26.747 -46.627 26.747 M -35.743 29.159 C -35.183 29.159 -34.729 28.705 -34.729 28.145 C -34.729 27.585 -35.183 27.131 -35.743 27.131 C -36.304 27.131 -36.758 27.585 -36.758 28.145 C -36.758 28.705 -36.304 29.159 -35.743 29.159 M -23.45 24.84 C -22.891 24.84 -22.436 24.386 -22.436 23.825 C -22.436 23.265 -22.891 22.811 -23.45 22.811 C -24.011 22.811 -24.465 23.265 -24.465 23.825 C -24.465 24.386 -24.011 24.84 -23.45 24.84 M -3.822 21.361 C -3.262 21.361 -2.808 20.907 -2.808 20.347 C -2.808 19.787 -3.262 19.333 -3.822 19.333 C -4.383 19.333 -4.837 19.787 -4.837 20.347 C -4.837 20.907 -4.383 21.361 -3.822 21.361 M 5.497 1.251 L 3.924 4.427 C 3.56 5.163 2.988 5.776 2.281 6.191 L -2.99 9.29 C -3.965 10.422 -5.392 11.154 -7.003 11.154 C -7.097 11.154 -7.185 11.131 -7.277 11.126 L -8.878 12.455 L -2.651 14.474 L -2.651 17.144 C -1.341 17.624 -0.4 18.871 -0.4 20.347 C -0.4 22.237 -1.933 23.769 -3.822 23.769 C -5.712 23.769 -7.244 22.237 -7.244 20.347 C -7.244 18.973 -6.429 17.795 -5.26 17.251 L -5.26 16.283 L -11.445 14.348 L -18.009 14.558 L -22.174 18.85 L -22.138 20.666 C -20.899 21.181 -20.028 22.401 -20.028 23.825 C -20.028 25.715 -21.561 27.248 -23.45 27.248 C -25.341 27.248 -26.872 25.715 -26.872 23.825 C -26.872 22.395 -25.993 21.172 -24.747 20.661 L -24.783 18.008 L -21.669 14.643 L -27.602 14.769 L -34.334 20.954 L -34.334 25.034 C -33.149 25.572 -32.321 26.759 -32.321 28.145 C -32.321 30.035 -33.854 31.567 -35.743 31.567 C -37.634 31.567 -39.165 30.035 -39.165 28.145 C -39.165 26.663 -38.218 25.414 -36.9 24.937 L -36.9 20.07 L -31.263 14.979 L -36.942 15.273 L -44.937 19.187 L -45.098 22.687 C -43.979 23.25 -43.205 24.396 -43.205 25.733 C -43.205 27.623 -44.736 29.155 -46.627 29.155 C -48.517 29.155 -50.049 27.623 -50.049 25.733 C -50.049 24.239 -49.087 22.983 -47.753 22.516 L -47.63 17.63 L -37.405 12.665 L -11.613 11.697 L -10.018 10.21 C -11.405 9.251 -12.316 7.654 -12.316 5.84 C -12.316 5.338 -12.225 4.861 -12.095 4.401 L -13.636 2.938 C -14.716 4.203 -16.319 5.007 -18.114 5.007 C -21.154 5.007 -23.656 2.703 -23.97 -0.255 L -41.313 -4.539 C -42.191 -3.543 -43.462 -2.903 -44.895 -2.903 C -47.544 -2.903 -49.691 -5.05 -49.691 -7.7 C -49.691 -9.032 -49.146 -10.236 -48.27 -11.105 L -49.088 -13.408 L -53.464 -17.896 L -53.296 -39.943 L -50.715 -39.943 L -50.715 -18.737 L -46.844 -15.091 L -45.763 -12.409 C -45.48 -12.46 -45.192 -12.496 -44.895 -12.496 C -44.767 -12.496 -44.646 -12.468 -44.521 -12.458 L -46.339 -19.579 L -43.029 -28.218 L -42.974 -39.999 L -40.561 -39.999 L -40.505 -27.376 L -43.814 -19.354 L -41.765 -11.307 C -40.752 -10.428 -40.098 -9.146 -40.098 -7.7 C -40.098 -7.464 -40.135 -7.238 -40.167 -7.012 L -23.649 -2.882 C -23.325 -3.779 -22.791 -4.573 -22.104 -5.207 L -22.216 -39.943 L -19.636 -39.943 L -19.636 -6.568 C -19.149 -6.698 -18.641 -6.774 -18.114 -6.774 C -17.553 -6.774 -17.013 -6.69 -16.499 -6.544 L -16.606 -39.943 L -14.025 -39.943 L -14.025 -5.119 C -12.916 -4.047 -12.224 -2.547 -12.224 -0.883 C -12.224 -0.325 -12.306 0.212 -12.451 0.724 L -10.796 2.125 C -9.831 1.14 -8.49 0.525 -7.003 0.525 C -6.369 0.525 -5.771 0.655 -5.208 0.858 L -3.196 0.201 C -2.803 0.073 -2.477 -0.208 -2.292 -0.579 L -1.548 -2.066 C -1.213 -2.737 -0.419 -3.038 0.276 -2.757 L 4.64 -0.999 C 5.526 -0.641 5.921 0.395 5.497 1.251" style="fill-opacity: 1; fill: rgba(197, 19, 41, 0.88);"/>
      </g>
    </g>
  </g>
</svg>